CddbId:180fa363:[150, 1195, 3578, 7137, 10474, 13887, 16716, 19028, 21843, 25270, 29018, 31762, 35642, 38401, 40943, 43778, 46321, 48968, 51838, 54207, 57871, 61604, 64920, 68208, 71782, 74847, 77647, 80601, 83533, 86870, 89740, 93070, 96225, 99632, 103359, 106737, 110018, 113515, 116239, 119513, 122780, 125503, 128631, 131996, 134935, 137910, 140654, 143664, 146805, 149689, 152469, 155826, 159344, 162270, 165175, 168093, 171458, 174690, 178180, 180974, 184241, 187877, 191019, 193540, 196856, 200005, 203216, 205682, 209569, 213024, 216528, 218848, 221474, 224629, 228161, 231623, 234438, 237099, 239941, 242999, 246586, 250376, 253921, 256520, 259292, 262350, 265812, 268397, 270598, 273969, 276449, 279312, 281820, 284774, 287588, 290597, 293690, 297020, 298977]:300375:74:180fa363 99 150 1195 3578 7137 10474 13887 16716 19028 21843 25270 29018 31762 35642 38401 40943 43778 46321 48968 51838 54207 57871 61604 64920 68208 71782 74847 77647 80601 83533 86870 89740 93070 96225 99632 103359 106737 110018 113515 116239 119513 122780 125503 128631 131996 134935 137910 140654 143664 146805 149689 152469 155826 159344 162270 165175 168093 171458 174690 178180 180974 184241 187877 191019 193540 196856 200005 203216 205682 209569 213024 216528 218848 221474 224629 228161 231623 234438 237099 239941 242999 246586 250376 253921 256520 259292 262350 265812 268397 270598 273969 276449 279312 281820 284774 287588 290597 293690 297020 298977 4005: 99 0 0 0 0 0 0 0 0 0 0 0 0 0 0 0 0 0 0 0 0 0 0 0 0 0 0 0 0 0 0 0 0 0 0 0 0 0 0 0 0 0 0 0 0 0 0 0 0 0 0 0 0 0 0 0 0 0 0 0 0 0 0 0 0 0 0 0 0 0 0 0 0 0 0 0 0 0 0 0 0 0 0 0 0 0 0 0 0 0 0 0 0 0 0 0 0 0 0 0 4005
num_tracks: 99
offsets: [150, 1195, 3578, 7137, 10474, 13887, 16716, 19028, 21843, 25270, 29018, 31762, 35642, 38401, 40943, 43778, 46321, 48968, 51838, 54207, 57871, 61604, 64920, 68208, 71782, 74847, 77647, 80601, 83533, 86870, 89740, 93070, 96225, 99632, 103359, 106737, 110018, 113515, 116239, 119513, 122780, 125503, 128631, 131996, 134935, 137910, 140654, 143664, 146805, 149689, 152469, 155826, 159344, 162270, 165175, 168093, 171458, 174690, 178180, 180974, 184241, 187877, 191019, 193540, 196856, 200005, 203216, 205682, 209569, 213024, 216528, 218848, 221474, 224629, 228161, 231623, 234438, 237099, 239941, 242999, 246586, 250376, 253921, 256520, 259292, 262350, 265812, 268397, 270598, 273969, 276449, 279312, 281820, 284774, 287588, 290597, 293690, 297020, 298977]
extents: [0, 0, 0, 0, 0, 0, 0, 0, 0, 0, 0, 0, 0, 0, 0, 0, 0, 0, 0, 0, 0, 0, 0, 0, 0, 0, 0, 0, 0, 0, 0, 0, 0, 0, 0, 0, 0, 0, 0, 0, 0, 0, 0, 0, 0, 0, 0, 0, 0, 0, 0, 0, 0, 0, 0, 0, 0, 0, 0, 0, 0, 0, 0, 0, 0, 0, 0, 0, 0, 0, 0, 0, 0, 0, 0, 0, 0, 0, 0, 0, 0, 0, 0, 0, 0, 0, 0, 0, 0, 0, 0, 0, 0, 0, 0, 0, 0, 0, 0]
total_length: 4005
cddb: [403678051, 99, 150, 1195, 3578, 7137, 10474, 13887, 16716, 19028, 21843, 25270, 29018, 31762, 35642, 38401, 40943, 43778, 46321, 48968, 51838, 54207, 57871, 61604, 64920, 68208, 71782, 74847, 77647, 80601, 83533, 86870, 89740, 93070, 96225, 99632, 103359, 106737, 110018, 113515, 116239, 119513, 122780, 125503, 128631, 131996, 134935, 137910, 140654, 143664, 146805, 149689, 152469, 155826, 159344, 162270, 165175, 168093, 171458, 174690, 178180, 180974, 184241, 187877, 191019, 193540, 196856, 200005, 203216, 205682, 209569, 213024, 216528, 218848, 221474, 224629, 228161, 231623, 234438, 237099, 239941, 242999, 246586, 250376, 253921, 256520, 259292, 262350, 265812, 268397, 270598, 273969, 276449, 279312, 281820, 284774, 287588, 290597, 293690, 297020, 298977, 4005]
musicbrainz: ('99 150 1195 3578 7137 10474 13887 16716 19028 21843 25270 29018 31762 35642 38401 40943 43778 46321 48968 51838 54207 57871 61604 64920 68208 71782 74847 77647 80601 83533 86870 89740 93070 96225 99632 103359 106737 110018 113515 116239 119513 122780 125503 128631 131996 134935 137910 140654 143664 146805 149689 152469 155826 159344 162270 165175 168093 171458 174690 178180 180974 184241 187877 191019 193540 196856 200005 203216 205682 209569 213024 216528 218848 221474 224629 228161 231623 234438 237099 239941 242999 246586 250376 253921 256520 259292 262350 265812 268397 270598 273969 276449 279312 281820 284774 287588 290597 293690 297020 298977 300375', 'ZghccG.BeyQW.tCh4WLAL.jzjDo-')

CD record:
Device type    : Removable CD-ROM
Version        : 0
Response Format: 2
Capabilities   : 
Vendor_info    : 'FREECOM_'
Identification : 'DVD+/-RW16H4    '
Revision       : 'FR00'
Device seems to be: Generic mmc2 DVD-R/DVD-RW.
Using generic SCSI-3/mmc   CD-R/CD-RW driver (mmc_cdr).
Driver flags   : MMC-3 SWABAUDIO BURNFREE 
Supported modes: TAO PACKET SAO SAO/R96R RAW/R96R
first: 1 last 99
track:   1 lba:         0 (        0) 00:02:00 adr: 1 control: 0 mode: -1
track:   2 lba:      1045 (     4180) 00:15:70 adr: 1 control: 0 mode: -1
track:   3 lba:      3428 (    13712) 00:47:53 adr: 1 control: 0 mode: -1
track:   4 lba:      6987 (    27948) 01:35:12 adr: 1 control: 0 mode: -1
track:   5 lba:     10324 (    41296) 02:19:49 adr: 1 control: 0 mode: -1
track:   6 lba:     13737 (    54948) 03:05:12 adr: 1 control: 0 mode: -1
track:   7 lba:     16566 (    66264) 03:42:66 adr: 1 control: 0 mode: -1
track:   8 lba:     18878 (    75512) 04:13:53 adr: 1 control: 0 mode: -1
track:   9 lba:     21693 (    86772) 04:51:18 adr: 1 control: 0 mode: -1
track:  10 lba:     25120 (   100480) 05:36:70 adr: 1 control: 0 mode: -1
track:  11 lba:     28868 (   115472) 06:26:68 adr: 1 control: 0 mode: -1
track:  12 lba:     31612 (   126448) 07:03:37 adr: 1 control: 0 mode: -1
track:  13 lba:     35492 (   141968) 07:55:17 adr: 1 control: 0 mode: -1
track:  14 lba:     38251 (   153004) 08:32:01 adr: 1 control: 0 mode: -1
track:  15 lba:     40793 (   163172) 09:05:68 adr: 1 control: 0 mode: -1
track:  16 lba:     43628 (   174512) 09:43:53 adr: 1 control: 0 mode: -1
track:  17 lba:     46171 (   184684) 10:17:46 adr: 1 control: 0 mode: -1
track:  18 lba:     48818 (   195272) 10:52:68 adr: 1 control: 0 mode: -1
track:  19 lba:     51688 (   206752) 11:31:13 adr: 1 control: 0 mode: -1
track:  20 lba:     54057 (   216228) 12:02:57 adr: 1 control: 0 mode: -1
track:  21 lba:     57721 (   230884) 12:51:46 adr: 1 control: 0 mode: -1
track:  22 lba:     61454 (   245816) 13:41:29 adr: 1 control: 0 mode: -1
track:  23 lba:     64770 (   259080) 14:25:45 adr: 1 control: 0 mode: -1
track:  24 lba:     68058 (   272232) 15:09:33 adr: 1 control: 0 mode: -1
track:  25 lba:     71632 (   286528) 15:57:07 adr: 1 control: 0 mode: -1
track:  26 lba:     74697 (   298788) 16:37:72 adr: 1 control: 0 mode: -1
track:  27 lba:     77497 (   309988) 17:15:22 adr: 1 control: 0 mode: -1
track:  28 lba:     80451 (   321804) 17:54:51 adr: 1 control: 0 mode: -1
track:  29 lba:     83383 (   333532) 18:33:58 adr: 1 control: 0 mode: -1
track:  30 lba:     86720 (   346880) 19:18:20 adr: 1 control: 0 mode: -1
track:  31 lba:     89590 (   358360) 19:56:40 adr: 1 control: 0 mode: -1
track:  32 lba:     92920 (   371680) 20:40:70 adr: 1 control: 0 mode: -1
track:  33 lba:     96075 (   384300) 21:23:00 adr: 1 control: 0 mode: -1
track:  34 lba:     99482 (   397928) 22:08:32 adr: 1 control: 0 mode: -1
track:  35 lba:    103209 (   412836) 22:58:09 adr: 1 control: 0 mode: -1
track:  36 lba:    106587 (   426348) 23:43:12 adr: 1 control: 0 mode: -1
track:  37 lba:    109868 (   439472) 24:26:68 adr: 1 control: 0 mode: -1
track:  38 lba:    113365 (   453460) 25:13:40 adr: 1 control: 0 mode: -1
track:  39 lba:    116089 (   464356) 25:49:64 adr: 1 control: 0 mode: -1
track:  40 lba:    119363 (   477452) 26:33:38 adr: 1 control: 0 mode: -1
track:  41 lba:    122630 (   490520) 27:17:05 adr: 1 control: 0 mode: -1
track:  42 lba:    125353 (   501412) 27:53:28 adr: 1 control: 0 mode: -1
track:  43 lba:    128481 (   513924) 28:35:06 adr: 1 control: 0 mode: -1
track:  44 lba:    131846 (   527384) 29:19:71 adr: 1 control: 0 mode: -1
track:  45 lba:    134785 (   539140) 29:59:10 adr: 1 control: 0 mode: -1
track:  46 lba:    137760 (   551040) 30:38:60 adr: 1 control: 0 mode: -1
track:  47 lba:    140504 (   562016) 31:15:29 adr: 1 control: 0 mode: -1
track:  48 lba:    143514 (   574056) 31:55:39 adr: 1 control: 0 mode: -1
track:  49 lba:    146655 (   586620) 32:37:30 adr: 1 control: 0 mode: -1
track:  50 lba:    149539 (   598156) 33:15:64 adr: 1 control: 0 mode: -1
track:  51 lba:    152319 (   609276) 33:52:69 adr: 1 control: 0 mode: -1
track:  52 lba:    155676 (   622704) 34:37:51 adr: 1 control: 0 mode: -1
track:  53 lba:    159194 (   636776) 35:24:44 adr: 1 control: 0 mode: -1
track:  54 lba:    162120 (   648480) 36:03:45 adr: 1 control: 0 mode: -1
track:  55 lba:    165025 (   660100) 36:42:25 adr: 1 control: 0 mode: -1
track:  56 lba:    167943 (   671772) 37:21:18 adr: 1 control: 0 mode: -1
track:  57 lba:    171308 (   685232) 38:06:08 adr: 1 control: 0 mode: -1
track:  58 lba:    174540 (   698160) 38:49:15 adr: 1 control: 0 mode: -1
track:  59 lba:    178030 (   712120) 39:35:55 adr: 1 control: 0 mode: -1
track:  60 lba:    180824 (   723296) 40:12:74 adr: 1 control: 0 mode: -1
track:  61 lba:    184091 (   736364) 40:56:41 adr: 1 control: 0 mode: -1
track:  62 lba:    187727 (   750908) 41:45:02 adr: 1 control: 0 mode: -1
track:  63 lba:    190869 (   763476) 42:26:69 adr: 1 control: 0 mode: -1
track:  64 lba:    193390 (   773560) 43:00:40 adr: 1 control: 0 mode: -1
track:  65 lba:    196706 (   786824) 43:44:56 adr: 1 control: 0 mode: -1
track:  66 lba:    199855 (   799420) 44:26:55 adr: 1 control: 0 mode: -1
track:  67 lba:    203066 (   812264) 45:09:41 adr: 1 control: 0 mode: -1
track:  68 lba:    205532 (   822128) 45:42:32 adr: 1 control: 0 mode: -1
track:  69 lba:    209419 (   837676) 46:34:19 adr: 1 control: 0 mode: -1
track:  70 lba:    212874 (   851496) 47:20:24 adr: 1 control: 0 mode: -1
track:  71 lba:    216378 (   865512) 48:07:03 adr: 1 control: 0 mode: -1
track:  72 lba:    218698 (   874792) 48:37:73 adr: 1 control: 0 mode: -1
track:  73 lba:    221324 (   885296) 49:12:74 adr: 1 control: 0 mode: -1
track:  74 lba:    224479 (   897916) 49:55:04 adr: 1 control: 0 mode: -1
track:  75 lba:    228011 (   912044) 50:42:11 adr: 1 control: 0 mode: -1
track:  76 lba:    231473 (   925892) 51:28:23 adr: 1 control: 0 mode: -1
track:  77 lba:    234288 (   937152) 52:05:63 adr: 1 control: 0 mode: -1
track:  78 lba:    236949 (   947796) 52:41:24 adr: 1 control: 0 mode: -1
track:  79 lba:    239791 (   959164) 53:19:16 adr: 1 control: 0 mode: -1
track:  80 lba:    242849 (   971396) 53:59:74 adr: 1 control: 0 mode: -1
track:  81 lba:    246436 (   985744) 54:47:61 adr: 1 control: 0 mode: -1
track:  82 lba:    250226 (  1000904) 55:38:26 adr: 1 control: 0 mode: -1
track:  83 lba:    253771 (  1015084) 56:25:46 adr: 1 control: 0 mode: -1
track:  84 lba:    256370 (  1025480) 57:00:20 adr: 1 control: 0 mode: -1
track:  85 lba:    259142 (  1036568) 57:37:17 adr: 1 control: 0 mode: -1
track:  86 lba:    262200 (  1048800) 58:18:00 adr: 1 control: 0 mode: -1
track:  87 lba:    265662 (  1062648) 59:04:12 adr: 1 control: 0 mode: -1
track:  88 lba:    268247 (  1072988) 59:38:47 adr: 1 control: 0 mode: -1
track:  89 lba:    270448 (  1081792) 60:07:73 adr: 1 control: 0 mode: -1
track:  90 lba:    273819 (  1095276) 60:52:69 adr: 1 control: 0 mode: -1
track:  91 lba:    276299 (  1105196) 61:25:74 adr: 1 control: 0 mode: -1
track:  92 lba:    279162 (  1116648) 62:04:12 adr: 1 control: 0 mode: -1
track:  93 lba:    281670 (  1126680) 62:37:45 adr: 1 control: 0 mode: -1
track:  94 lba:    284624 (  1138496) 63:16:74 adr: 1 control: 0 mode: -1
track:  95 lba:    287438 (  1149752) 63:54:38 adr: 1 control: 0 mode: -1
track:  96 lba:    290447 (  1161788) 64:34:47 adr: 1 control: 0 mode: -1
track:  97 lba:    293540 (  1174160) 65:15:65 adr: 1 control: 0 mode: -1
track:  98 lba:    296870 (  1187480) 66:00:20 adr: 1 control: 0 mode: -1
track:  99 lba:    298827 (  1195308) 66:26:27 adr: 1 control: 0 mode: -1
track:lout lba:    300225 (  1200900) 66:45:00 adr: 1 control: 0 mode: -1
